<svg width="24" height="19" viewBox="0 0 24 19" fill="none" xmlns="http://www.w3.org/2000/svg">
<path d="M5.00033 19C4.717 19 4.45866 18.9125 4.22533 18.7375C3.992 18.5625 3.83366 18.3333 3.75033 18.05L0.95033 7.95C0.866997 7.71667 0.904497 7.5 1.06283 7.3C1.22116 7.1 1.43366 7 1.70033 7H6.75033L11.1503 0.45C11.2337 0.316667 11.3503 0.208333 11.5003 0.125C11.6503 0.0416667 11.8087 0 11.9753 0C12.142 0 12.3003 0.0416667 12.4503 0.125C12.6003 0.208333 12.717 0.316667 12.8003 0.45L17.2003 7H22.3003C22.567 7 22.7795 7.1 22.9378 7.3C23.0962 7.5 23.1337 7.71667 23.0503 7.95L20.2503 18.05C20.167 18.3333 20.0087 18.5625 19.7753 18.7375C19.542 18.9125 19.2837 19 19.0003 19H5.00033ZM5.50033 17H18.5003L20.7003 9H3.30033L5.50033 17ZM12.0003 15C12.5503 15 13.0212 14.8042 13.4128 14.4125C13.8045 14.0208 14.0003 13.55 14.0003 13C14.0003 12.45 13.8045 11.9792 13.4128 11.5875C13.0212 11.1958 12.5503 11 12.0003 11C11.4503 11 10.9795 11.1958 10.5878 11.5875C10.1962 11.9792 10.0003 12.45 10.0003 13C10.0003 13.55 10.1962 14.0208 10.5878 14.4125C10.9795 14.8042 11.4503 15 12.0003 15ZM9.17533 7H14.8003L11.9753 2.8L9.17533 7Z" fill="white"/>
</svg>
